<?xml version="1.0" ?><!DOCTYPE svg  PUBLIC '-//W3C//DTD SVG 1.1//EN'  'http://www.w3.org/Graphics/SVG/1.1/DTD/svg11.dtd'><svg enable-background="new 0 0 64 64" height="64px" id="Layer_1" version="1.1" viewBox="0 0 64 64" width="64px" xml:space="preserve" xmlns="http://www.w3.org/2000/svg" xmlns:xlink="http://www.w3.org/1999/xlink"><g id="dollar"><g><g><g><g><g><g><circle cx="32" cy="32" fill="#FFFFFF" r="26.5"/></g></g></g><g><g><g><g><path d="M58,32c0-11.868-7.996-21.897-18.881-25.001C37.462,6.675,35.752,6.5,34,6.5          C19.365,6.5,7.5,18.365,7.5,33c0,7.773,3.348,14.765,8.679,19.612C20.565,55.987,26.051,58,32,58C46.337,58,58,46.337,58,32          z" fill="#FFE57F"/></g></g></g></g><g><g><g><path d="M42.852,7.825C50.99,12.349,56.5,21.029,56.5,31c0,14.635-11.865,26.5-26.5,26.5         c-3.868,0-7.539-0.836-10.852-2.325C22.955,57.291,27.336,58.5,32,58.5c14.635,0,26.5-11.865,26.5-26.5         C58.5,21.233,52.074,11.973,42.852,7.825z" fill="#FFD740"/></g></g></g><g><g><g><path d="M32,59C17.112,59,5,46.888,5,32S17.112,5,32,5s27,12.112,27,27S46.888,59,32,59z M32,6         C17.663,6,6,17.663,6,32s11.663,26,26,26s26-11.663,26-26S46.337,6,32,6z" fill="#37474F"/></g></g></g></g><g><g><g><g><circle cx="32" cy="32" fill="#FFD740" r="22.5"/></g></g></g><g><g><g><path d="M11.5,33c0-12.426,10.074-22.5,22.5-22.5c3.212,0,6.265,0.678,9.029,1.892         C39.77,10.554,36.009,9.5,32,9.5C19.574,9.5,9.5,19.574,9.5,32c0,9.214,5.541,17.129,13.471,20.608         C16.126,48.75,11.5,41.417,11.5,33z" fill="#FFCA28"/></g></g></g><g><g><g><path d="M41.029,11.392C47.874,15.25,52.5,22.583,52.5,31c0,12.426-10.074,22.5-22.5,22.5         c-3.212,0-6.265-0.678-9.029-1.892C24.23,53.446,27.991,54.5,32,54.5c12.426,0,22.5-10.074,22.5-22.5         C54.5,22.786,48.959,14.871,41.029,11.392z" fill="#FFE57F"/></g></g></g><g><g><g><path d="M32,55C19.317,55,9,44.683,9,32S19.317,9,32,9s23,10.317,23,23S44.683,55,32,55z M32,10         c-12.131,0-22,9.869-22,22s9.869,22,22,22s22-9.869,22-22S44.131,10,32,10z" fill="#37474F"/></g></g></g></g></g></g><g><g><g><g><path d="M33,29.646v-9.628c2.691,0.351,3.965,1.555,4.201,3.354h5.338c-0.623-3.395-4.917-6.089-9.539-6.199V15       h-3v2.172c-4,0.102-9.045,2.729-9.444,7.045C19.97,30.529,26,32.632,30,34.372v9.578c-1.84-0.347-3.45-1.56-3.699-3.452h-5.614       c0.604,3.496,5.563,6.268,9.313,6.379V50h3v-3.121c5-0.104,8.971-2.8,9.442-7.087C43.136,33.484,38,31.397,33,29.646z        M30,28.527c-2-1.06-4.581-2.293-4.581-4.516c0-2.161,2.581-3.607,4.581-3.994V28.527z M33,43.965v-8.473       c3,1.057,4.577,2.281,4.577,4.505C37.577,42.21,36,43.607,33,43.965z" fill="#FFFFFF"/></g></g></g><g><g><g><g><path d="M30.511,18.672c-4.028,0.086-8.55,2.186-8.957,6.591c-0.526,5.674,3.817,7.722,9.116,9.64L31,35.021        v10.504l-0.569-0.08c-2.983-0.417-4.041-1.948-4.332-3.445h-4.415c0.847,2.88,4.606,5.272,8.829,5.377L31,47.39V50h2v-2.121        V47.39l0.489-0.011c4.854-0.105,8.537-2.837,8.956-6.642c0.002-0.021,0.001-0.041,0.004-0.062        c0.033-0.335,0.053-0.659,0.054-0.97c0-4.864-4.159-6.783-9.173-8.589L33,30.998v-0.352v-9.628v-0.577l0.571,0.082        c2.442,0.354,3.933,1.579,4.317,3.477h4.423c-0.857-2.854-4.61-5.223-8.824-5.326L33,18.662v-0.488V16h-2v2.661L30.511,18.672        z M31,30.271l-0.688-0.28c-2.348-0.955-4.51-2.168-4.828-4.416c-0.038-0.182-0.064-0.367-0.064-0.563        c0-0.172,0.021-0.337,0.053-0.499c0.26-2.064,2.097-3.576,4.957-3.99L31,20.44V30.271z M33,44.965v-8.473V35.75l0.688,0.279        c2.539,1.03,4.889,2.346,4.889,4.968c0,2.388-1.874,4.057-5.013,4.464L33,45.534V44.965z" fill="#FFE57F"/></g></g></g></g><g><g><g><g><path d="M25.419,24.012c0,2.626,2.352,3.945,4.893,4.979L31,29.271v-9.83l-0.571,0.082        C27.339,19.97,25.419,21.689,25.419,24.012z M30,27.771c-2.533-1.13-3.581-2.245-3.581-3.76c0-1.651,1.356-2.921,3.581-3.397        V27.771z" fill="#37474F"/></g></g></g><g><g><g><path d="M33,44.534l0.564-0.073c3.139-0.407,5.013-2.076,5.013-4.464c0-2.622-2.35-3.938-4.889-4.968L33,34.75        V44.534z M34,36.248c2.53,1.126,3.577,2.238,3.577,3.749c0,1.728-1.295,2.94-3.577,3.382V36.248z" fill="#37474F"/></g></g></g></g><g><g><g><path d="M34,29.295v-8.678c1.986,0.441,2.994,1.577,2.999,3.383H37h6.484c-0.165-3.682-4.469-6.984-9.484-7.305       V14h-4v2.69c-5.203,0.285-9.057,3.312-9.442,7.48c-0.625,6.733,5.083,8.971,9.442,10.552v8.633       c-2.017-0.429-2.999-1.531-3-3.355h-6.485c0.157,3.706,4.466,7.033,9.485,7.355V50h4v-2.641       c5.128-0.288,8.979-3.327,9.439-7.513C44.177,33.139,38.406,30.888,34,29.295z M42.445,39.737       c-0.419,3.805-4.102,6.536-8.956,6.642L33,46.39V49h-2v-2.61l-0.487-0.013C26.29,46.272,22.53,43.88,21.684,41h4.415       c0.291,1.497,1.349,3.028,4.332,3.445L31,44.525V34.021l-0.33-0.119c-5.299-1.918-9.643-3.966-9.116-9.64       c0.407-4.405,4.929-6.505,8.957-6.591L31,17.661V15h2v2.662l0.487,0.012c4.214,0.104,7.967,2.472,8.824,5.326h-4.423       c-0.385-1.897-1.875-3.123-4.317-3.477L33,19.441v10.557l0.33,0.119C38.684,32.046,43.064,34.102,42.445,39.737z" fill="#37474F"/></g></g></g></g></g></svg>